<svg width="913" height="345" viewBox="0 0 913 345" fill="none" xmlns="http://www.w3.org/2000/svg">
<path d="M302.532 78.286C301.331 78.286 300.73 77.4027 300.73 75.636C300.73 72.9507 302.073 68.3573 304.758 61.856C307.444 55.284 311.507 46.8747 316.948 36.628C320.058 30.8333 322.602 26.028 324.58 22.212C326.559 18.396 328.114 15.3573 329.244 13.096C330.375 10.764 331.188 9.03266 331.682 7.902C332.177 6.70066 332.46 5.81733 332.53 5.25199C332.53 4.96933 332.601 4.75733 332.742 4.616L328.608 4.404C327.69 4.33333 326.983 4.08599 326.488 3.662C326.064 3.238 325.852 2.77866 325.852 2.28399C325.852 1.29466 326.418 0.799995 327.548 0.799995C342.954 0.799995 356.31 3.98 367.616 10.34C373.482 13.6613 378.322 17.8307 382.138 22.848C385.954 27.7947 387.862 33.4127 387.862 39.702C387.862 44.79 386.449 49.1713 383.622 52.846C380.796 56.5207 376.944 59.7007 372.068 62.386C367.263 65.0713 361.822 67.474 355.744 69.594C351.646 71.0073 347.088 72.3853 342.07 73.728C337.053 75 332.142 76.0247 327.336 76.802C322.531 77.5793 318.291 77.968 314.616 77.968C312.072 77.968 310.094 77.6147 308.68 76.908C307.196 76.1307 306.454 75.2827 306.454 74.364C306.454 73.5867 306.878 73.198 307.726 73.198C308.292 73.198 308.822 73.304 309.316 73.516C309.811 73.728 310.518 73.94 311.436 74.152C312.355 74.364 313.698 74.47 315.464 74.47C318.008 74.47 320.87 74.258 324.05 73.834C327.301 73.3393 330.658 72.7033 334.12 71.926C337.654 71.1487 341.081 70.3007 344.402 69.382C347.724 68.3927 350.762 67.4387 353.518 66.52C359.454 64.4707 364.719 62.2093 369.312 59.736C373.976 57.2627 377.616 54.33 380.23 50.938C382.845 47.546 384.152 43.4473 384.152 38.642C384.152 28.5367 378.252 20.1273 366.45 13.414C358.606 9.03267 348.395 6.17066 335.816 4.82799C336.099 5.18133 336.24 5.57 336.24 5.994C336.24 6.63 335.71 8.07866 334.65 10.34C333.661 12.6013 332.318 15.322 330.622 18.502C328.997 21.682 327.266 25.0387 325.428 28.572C323.591 32.1053 321.824 35.4267 320.128 38.536C309.458 58.9587 304.122 71.2547 304.122 75.424C304.122 75.7067 304.122 75.9187 304.122 76.06C304.193 76.2013 304.228 76.4133 304.228 76.696C304.228 77.0493 304.087 77.4027 303.804 77.756C303.522 78.1093 303.098 78.286 302.532 78.286ZM403.216 76.908C400.248 76.908 397.916 75.8833 396.22 73.834C394.524 71.7847 393.676 69.276 393.676 66.308C393.676 61.22 395.372 55.9907 398.764 50.62C399.683 49.136 400.743 47.6873 401.944 46.274C403.145 44.79 404.453 43.3767 405.866 42.034C407.986 39.9847 410.212 38.2887 412.544 36.946C414.876 35.6033 417.137 34.932 419.328 34.932C422.932 34.932 424.734 36.628 424.734 40.02C424.734 44.26 422.261 48.1113 417.314 51.574C412.721 54.6833 408.198 56.238 403.746 56.238C402.969 56.238 402.262 56.2027 401.626 56.132C401.061 55.9907 400.531 55.8493 400.036 55.708C399.329 57.0507 398.693 58.782 398.128 60.902C397.563 63.022 397.28 64.8593 397.28 66.414C397.28 71.078 399.329 73.41 403.428 73.41C406.749 73.41 409.894 72.8447 412.862 71.714C415.83 70.5127 419.363 68.2867 423.462 65.036C426.006 63.0573 427.914 61.4673 429.186 60.266C430.458 59.0647 431.836 57.7927 433.32 56.45C433.744 56.1673 434.133 56.026 434.486 56.026C434.839 56.026 435.193 56.132 435.546 56.344C435.899 56.556 436.076 56.874 436.076 57.298C436.076 58.0753 435.369 59.1707 433.956 60.584C432.755 61.7147 431.483 62.916 430.14 64.188C428.797 65.3893 426.677 67.0853 423.78 69.276C420.671 71.6787 417.279 73.5513 413.604 74.894C409.929 76.2367 406.467 76.908 403.216 76.908ZM403.11 52.846C405.371 52.846 407.527 52.4927 409.576 51.786C411.625 51.0793 413.569 50.0547 415.406 48.712C419.505 45.6733 421.554 42.8113 421.554 40.126C421.554 38.9247 420.812 38.324 419.328 38.324C416.501 38.324 413.215 40.0553 409.47 43.518C407.633 45.214 406.113 46.7687 404.912 48.182C403.781 49.5247 402.721 51.0087 401.732 52.634C402.156 52.7753 402.615 52.846 403.11 52.846ZM432.001 78.498C428.044 78.498 426.065 77.1907 426.065 74.576C426.065 72.9507 426.631 71.3253 427.761 69.7C428.963 68.0747 430.376 66.5907 432.001 65.248C433.627 63.9053 435.146 62.8807 436.559 62.174C436.983 61.962 437.549 61.75 438.255 61.538C439.033 61.326 439.669 61.22 440.163 61.22C440.729 61.22 441.011 61.432 441.011 61.856C441.011 62.2093 440.623 62.598 439.845 63.022C436.595 64.5767 434.051 66.4493 432.213 68.64C430.447 70.76 429.563 72.4913 429.563 73.834C429.563 75.106 430.659 75.742 432.849 75.742C434.687 75.742 436.665 75.2827 438.785 74.364C440.976 73.4453 443.025 72.244 444.933 70.76C446.912 69.276 448.537 67.686 449.809 65.99C451.081 64.294 451.717 62.6687 451.717 61.114C451.717 60.054 451.364 59.1 450.657 58.252C450.021 57.404 448.961 56.768 447.477 56.344L440.481 54.224C438.715 53.6587 437.443 52.9167 436.665 51.998C435.888 51.0793 435.499 50.0547 435.499 48.924C435.499 46.804 436.277 44.896 437.831 43.2C439.457 41.504 441.471 40.1613 443.873 39.172C446.276 38.1827 448.608 37.688 450.869 37.688C453.131 37.688 455.109 38.2533 456.805 39.384C458.501 40.444 459.349 41.8927 459.349 43.73C459.349 44.79 459.031 45.7793 458.395 46.698C457.83 47.6167 457.159 48.076 456.381 48.076C455.18 48.076 454.579 47.5813 454.579 46.592C454.579 46.2387 454.756 45.8147 455.109 45.32C455.533 44.7547 455.745 44.2247 455.745 43.73C455.745 41.61 454.12 40.55 450.869 40.55C449.103 40.55 447.336 40.9387 445.569 41.716C443.873 42.4227 442.46 43.3767 441.329 44.578C440.199 45.7793 439.633 47.0867 439.633 48.5C439.633 49.9133 441.047 51.044 443.873 51.892L450.657 54.012C452.707 54.648 454.12 55.5313 454.897 56.662C455.675 57.722 456.063 58.9233 456.063 60.266C456.063 63.446 454.12 66.732 450.233 70.124C443.944 75.7067 437.867 78.498 432.001 78.498ZM485.486 33.236C484.285 33.236 483.684 32.6353 483.684 31.434C483.684 31.0807 483.931 30.4447 484.426 29.526C484.921 28.5367 485.486 27.5473 486.122 26.558C486.758 25.5687 487.253 24.8973 487.606 24.544C488.807 23.2013 489.726 22.3533 490.362 22C491.069 21.6467 491.705 21.47 492.27 21.47C493.754 21.47 494.496 22.1413 494.496 23.484C494.496 23.9787 494.178 24.5793 493.542 25.286C492.977 25.922 492.305 26.5227 491.528 27.088C490.397 27.7947 489.691 28.36 489.408 28.784L487.076 32.07C487.005 32.3527 486.829 32.6353 486.546 32.918C486.334 33.13 485.981 33.236 485.486 33.236ZM467.466 76.166C465.487 76.166 464.039 75.7773 463.12 75C462.272 74.2227 461.848 73.0567 461.848 71.502C461.848 70.018 462.307 68.004 463.226 65.46C464.145 62.8453 465.311 60.054 466.724 57.086C468.208 54.118 469.763 51.2913 471.388 48.606C473.013 45.9207 474.568 43.73 476.052 42.034C477.607 40.2673 478.843 39.384 479.762 39.384C481.034 39.384 481.67 39.9493 481.67 41.08C481.67 41.7867 481.069 43.1293 479.868 45.108C478.667 47.0867 477.359 49.136 475.946 51.256C475.381 52.0333 474.603 53.0933 473.614 54.436C472.625 55.7787 471.671 57.0507 470.752 58.252C469.833 59.3827 469.233 60.16 468.95 60.584C468.243 61.644 467.501 63.3753 466.724 65.778C465.876 68.1807 465.452 70.018 465.452 71.29C465.452 71.8553 465.558 72.2793 465.77 72.562C466.053 72.8447 466.653 72.986 467.572 72.986C469.339 72.986 471.317 72.4207 473.508 71.29C475.699 70.1593 477.925 68.746 480.186 67.05C482.447 65.2833 484.567 63.4813 486.546 61.644C488.595 59.8067 490.327 58.2167 491.74 56.874C492.023 56.5913 492.447 56.45 493.012 56.45C494.072 56.45 494.602 56.874 494.602 57.722C494.602 58.4993 494.107 59.3827 493.118 60.372C491.21 62.28 489.443 63.976 487.818 65.46C486.193 66.944 484.638 68.2513 483.154 69.382C480.822 71.078 478.243 72.6327 475.416 74.046C472.589 75.4593 469.939 76.166 467.466 76.166ZM490.589 109.874C487.621 109.874 485.395 108.743 483.911 106.482C482.427 104.291 481.685 101.783 481.685 98.956C481.685 96.836 481.791 94.7513 482.003 92.702C482.144 90.7233 482.392 88.7447 482.745 86.766C482.957 85.6353 483.452 85.07 484.229 85.07C485.642 85.07 486.349 85.812 486.349 87.296C486.349 87.72 486.243 88.356 486.031 89.204C485.819 89.9107 485.713 90.4407 485.713 90.794C485.572 91.9247 485.466 93.0907 485.395 94.292C485.324 95.564 485.289 96.836 485.289 98.108C485.289 103.691 487.338 106.482 491.437 106.482C492.638 106.482 494.016 105.669 495.571 104.044C497.196 102.419 498.645 100.652 499.917 98.744C502.885 94.292 506.03 87.2607 509.351 77.65L512.849 67.58C507.125 74.4347 501.966 77.862 497.373 77.862C494.546 77.862 492.356 76.802 490.801 74.682C489.246 72.562 488.469 69.9827 488.469 66.944C488.469 60.8667 491.154 54.1533 496.525 46.804C502.39 38.96 508.15 35.038 513.803 35.038C518.255 35.038 521.188 37.6527 522.601 42.882C525.286 36.3807 527.76 33.13 530.021 33.13C530.869 33.13 531.293 33.8367 531.293 35.25C531.293 38.0767 529.986 41.8573 527.371 46.592C526.806 47.5107 526.099 48.6413 525.251 49.984C524.474 51.3267 523.59 52.9167 522.601 54.754L518.997 63.552C518.29 65.248 517.407 67.4033 516.347 70.018C515.287 72.562 514.086 75.5653 512.743 79.028C511.188 83.268 509.74 86.9073 508.397 89.946C507.125 93.0553 505.959 95.5993 504.899 97.578C500.306 105.775 495.677 109.874 491.013 109.874H490.589ZM497.373 74.152C501.825 74.152 508.397 68.1807 517.089 56.238L520.163 48.394C519.668 48.0407 519.315 47.2987 519.103 46.168C518.467 43.1293 517.725 41.1153 516.877 40.126C516.029 39.1367 514.898 38.642 513.485 38.642C511.86 38.642 509.987 39.384 507.867 40.868C505.747 42.352 503.733 44.1893 501.825 46.38C499.917 48.5 498.398 50.5847 497.267 52.634C493.875 58.4287 492.179 63.4107 492.179 67.58C492.179 71.9613 493.91 74.152 497.373 74.152ZM526.478 77.65C525.347 77.65 524.782 77.1907 524.782 76.272C524.782 75.9187 524.923 75.4947 525.206 75C525.489 74.4347 525.736 73.9753 525.948 73.622L535.488 54.436C539.587 46.0973 541.636 41.4687 541.636 40.55C541.636 39.5607 542.131 39.066 543.12 39.066C544.463 39.066 545.134 39.7727 545.134 41.186C545.134 41.6807 544.816 42.7407 544.18 44.366C543.544 45.9913 542.731 47.8287 541.742 49.878C540.046 53.5527 538.633 56.3793 537.502 58.358C539.622 55.8847 541.777 53.5527 543.968 51.362C546.159 49.1713 548.385 47.0867 550.646 45.108C557.359 39.2427 562.518 36.31 566.122 36.31C568.595 36.31 569.832 37.476 569.832 39.808C569.832 41.928 568.03 46.698 564.426 54.118C560.822 61.6087 559.02 66.3433 559.02 68.322C559.02 69.2407 559.338 69.7 559.974 69.7C560.186 69.7 560.504 69.6293 560.928 69.488C561.423 69.276 561.917 69.17 562.412 69.17C563.613 69.17 564.214 69.7353 564.214 70.866C564.214 72.2793 562.695 72.986 559.656 72.986C558.243 72.986 557.218 72.668 556.582 72.032C555.946 71.3253 555.628 70.4067 555.628 69.276C555.628 65.884 557.359 60.7253 560.822 53.8C564.285 46.9453 566.016 42.8113 566.016 41.398C566.016 40.55 565.698 40.126 565.062 40.126C563.507 40.126 560.999 41.4333 557.536 44.048C553.791 46.8747 550.045 50.1253 546.3 53.8C542.555 57.4747 538.986 61.6793 535.594 66.414L528.174 76.696C527.75 77.332 527.185 77.65 526.478 77.65ZM636.68 84.434C636.115 84.434 635.408 84.1513 634.56 83.586C633.783 83.0913 633.182 82.5967 632.758 82.102C631.91 81.042 631.345 79.77 631.062 78.286C630.779 76.802 630.638 75.1767 630.638 73.41C630.638 71.926 630.673 70.336 630.744 68.64C630.885 66.8733 631.097 65.0007 631.38 63.022C629.543 65.142 627.458 67.2267 625.126 69.276C622.865 71.2547 620.533 72.88 618.13 74.152C615.798 75.424 613.572 76.06 611.452 76.06C606.152 76.06 603.502 73.2333 603.502 67.58C603.502 61.7147 605.551 56.0613 609.65 50.62C611.699 47.9347 614.031 45.3553 616.646 42.882C619.261 40.4087 622.017 38.3947 624.914 36.84C627.811 35.2853 630.673 34.508 633.5 34.508C635.62 34.508 637.493 35.3207 639.118 36.946C639.259 36.6633 639.436 36.204 639.648 35.568C639.931 34.932 640.319 34.1193 640.814 33.13C642.51 29.4553 644.383 25.6393 646.432 21.682C648.481 17.654 650.319 14.3327 651.944 11.718C653.781 8.82067 655.513 7.372 657.138 7.372C658.269 7.372 658.834 8.25533 658.834 10.022C658.834 13.0607 655.972 20.1627 650.248 31.328C649.895 31.964 649.259 33.13 648.34 34.826C647.492 36.4513 646.467 38.3593 645.266 40.55C644.135 42.67 642.969 44.79 641.768 46.91C640.567 49.03 639.471 50.938 638.482 52.634C637.563 54.2593 636.892 55.39 636.468 56.026C635.691 59.206 635.09 62.2447 634.666 65.142C634.242 67.9687 634.03 70.9013 634.03 73.94C634.03 75.0707 634.065 76.0953 634.136 77.014C634.277 78.0033 634.56 78.7807 634.984 79.346C635.337 79.77 635.726 80.088 636.15 80.3C636.574 80.5827 637.069 80.83 637.634 81.042C638.482 81.254 638.906 81.7487 638.906 82.526C638.906 83.798 638.164 84.434 636.68 84.434ZM641.662 40.126C644.347 35.5327 646.715 31.2573 648.764 27.3C650.813 23.272 652.474 19.4913 653.746 15.958C650.919 19.6327 648.552 23.5193 646.644 27.618C644.736 31.7167 643.075 35.886 641.662 40.126ZM610.71 72.88C612.759 72.88 614.915 72.2087 617.176 70.866C619.508 69.4527 621.699 67.792 623.748 65.884C625.585 64.188 627.281 62.4567 628.836 60.69C630.391 58.8527 631.839 56.98 633.182 55.072C633.747 52.5987 634.383 50.1607 635.09 47.758C635.867 45.3553 636.715 42.9527 637.634 40.55C636.503 38.7833 634.913 37.9 632.864 37.9C630.744 37.9 628.377 38.7127 625.762 40.338C623.218 41.8927 620.745 43.836 618.342 46.168C616.01 48.5 613.996 50.726 612.3 52.846C608.767 57.5807 607 62.598 607 67.898C607 71.2193 608.237 72.88 610.71 72.88ZM669.537 33.236C668.335 33.236 667.735 32.6353 667.735 31.434C667.735 31.0807 667.982 30.4447 668.477 29.526C668.971 28.5367 669.537 27.5473 670.173 26.558C670.809 25.5687 671.303 24.8973 671.657 24.544C672.858 23.2013 673.777 22.3533 674.413 22C675.119 21.6467 675.755 21.47 676.321 21.47C677.805 21.47 678.547 22.1413 678.547 23.484C678.547 23.9787 678.229 24.5793 677.593 25.286C677.027 25.922 676.356 26.5227 675.579 27.088C674.448 27.7947 673.741 28.36 673.459 28.784L671.127 32.07C671.056 32.3527 670.879 32.6353 670.597 32.918C670.385 33.13 670.031 33.236 669.537 33.236ZM651.517 76.166C649.538 76.166 648.089 75.7773 647.171 75C646.323 74.2227 645.899 73.0567 645.899 71.502C645.899 70.018 646.358 68.004 647.277 65.46C648.195 62.8453 649.361 60.054 650.775 57.086C652.259 54.118 653.813 51.2913 655.439 48.606C657.064 45.9207 658.619 43.73 660.103 42.034C661.657 40.2673 662.894 39.384 663.813 39.384C665.085 39.384 665.721 39.9493 665.721 41.08C665.721 41.7867 665.12 43.1293 663.919 45.108C662.717 47.0867 661.41 49.136 659.997 51.256C659.431 52.0333 658.654 53.0933 657.665 54.436C656.675 55.7787 655.721 57.0507 654.803 58.252C653.884 59.3827 653.283 60.16 653.001 60.584C652.294 61.644 651.552 63.3753 650.775 65.778C649.927 68.1807 649.503 70.018 649.503 71.29C649.503 71.8553 649.609 72.2793 649.821 72.562C650.103 72.8447 650.704 72.986 651.623 72.986C653.389 72.986 655.368 72.4207 657.559 71.29C659.749 70.1593 661.975 68.746 664.237 67.05C666.498 65.2833 668.618 63.4813 670.597 61.644C672.646 59.8067 674.377 58.2167 675.791 56.874C676.073 56.5913 676.497 56.45 677.063 56.45C678.123 56.45 678.653 56.874 678.653 57.722C678.653 58.4993 678.158 59.3827 677.169 60.372C675.261 62.28 673.494 63.976 671.869 65.46C670.243 66.944 668.689 68.2513 667.205 69.382C664.873 71.078 662.293 72.6327 659.467 74.046C656.64 75.4593 653.99 76.166 651.517 76.166ZM677.184 76.06C673.085 76.06 671.036 74.1167 671.036 70.23C671.036 67.686 671.636 64.9653 672.838 62.068C674.11 59.1 675.806 56.238 677.926 53.482C680.046 50.6553 682.413 48.1113 685.028 45.85C687.642 43.518 690.328 41.6807 693.084 40.338C695.84 38.9247 698.49 38.218 701.034 38.218C705.556 38.218 707.818 40.444 707.818 44.896C707.818 47.7933 707.111 49.242 705.698 49.242C704.426 49.242 703.79 48.6413 703.79 47.44C703.79 46.9453 703.896 46.4507 704.108 45.956C704.39 45.3907 704.532 44.79 704.532 44.154C704.532 42.1753 703.189 41.186 700.504 41.186C696.193 41.186 690.787 44.472 684.286 51.044C682.731 52.6693 681.212 54.5773 679.728 56.768C678.244 58.9587 677.007 61.1847 676.018 63.446C675.099 65.6367 674.64 67.7213 674.64 69.7C674.64 71.608 675.7 72.562 677.82 72.562C679.657 72.562 681.6 71.9967 683.65 70.866C685.77 69.7353 687.607 68.5693 689.162 67.368C692.271 65.036 695.451 61.856 698.702 57.828C699.196 57.2627 699.832 56.5207 700.61 55.602C701.387 54.6833 702.27 53.6587 703.26 52.528C703.613 52.1747 704.037 51.998 704.532 51.998C705.662 51.998 706.228 52.5633 706.228 53.694L702.2 59.736C699.514 63.6933 698.172 66.944 698.172 69.488C698.172 71.3253 699.055 72.244 700.822 72.244C702.306 72.244 703.931 71.8553 705.698 71.078C707.464 70.3007 708.913 69.5233 710.044 68.746C712.305 67.262 714.672 65.4247 717.146 63.234C719.619 60.9727 721.986 58.7113 724.248 56.45C724.53 56.1673 724.954 56.026 725.52 56.026C726.58 56.026 727.11 56.45 727.11 57.298C727.11 58.0753 726.615 58.9587 725.626 59.948C722.799 62.7747 720.255 65.2127 717.994 67.262C715.732 69.2407 713.577 70.866 711.528 72.138C710.185 72.9153 708.524 73.728 706.546 74.576C704.567 75.424 702.306 75.848 699.762 75.848C696.299 75.848 694.568 74.0107 694.568 70.336C694.568 68.9227 694.744 67.7567 695.098 66.838C688.667 72.986 682.696 76.06 677.184 76.06ZM717.05 77.65C715.92 77.65 715.354 77.1907 715.354 76.272C715.354 75.848 715.46 75.424 715.672 75C715.955 74.576 716.167 74.2227 716.308 73.94L725.954 54.436C730.053 46.0973 732.102 41.4687 732.102 40.55C732.102 39.5607 732.597 39.066 733.586 39.066C734.929 39.066 735.6 39.7373 735.6 41.08C735.6 41.7867 735.282 42.9173 734.646 44.472C734.01 46.0267 733.198 47.8287 732.208 49.878C730.512 53.5527 729.099 56.3793 727.968 58.358C730.088 55.8847 732.244 53.5527 734.434 51.362C736.625 49.1713 738.851 47.0867 741.112 45.108C747.826 39.2427 752.984 36.31 756.588 36.31C759.062 36.31 760.298 37.476 760.298 39.808C760.298 42.0693 759.556 43.2 758.072 43.2C757.366 43.2 756.836 42.5993 756.482 41.398C756.27 40.55 755.776 40.126 754.998 40.126C753.797 40.126 751.465 41.4333 748.002 44.048C744.186 46.8747 740.335 50.2313 736.448 54.118C732.632 58.0047 728.569 62.9513 724.258 68.958L718.958 76.378C718.676 76.7313 718.393 77.014 718.11 77.226C717.898 77.5087 717.545 77.65 717.05 77.65ZM777.607 33.236C776.406 33.236 775.805 32.6353 775.805 31.434C775.805 31.0807 776.052 30.4447 776.547 29.526C777.042 28.5367 777.607 27.5473 778.243 26.558C778.879 25.5687 779.374 24.8973 779.727 24.544C780.928 23.2013 781.847 22.3533 782.483 22C783.19 21.6467 783.826 21.47 784.391 21.47C785.875 21.47 786.617 22.1413 786.617 23.484C786.617 23.9787 786.299 24.5793 785.663 25.286C785.098 25.922 784.426 26.5227 783.649 27.088C782.518 27.7947 781.812 28.36 781.529 28.784L779.197 32.07C779.126 32.3527 778.95 32.6353 778.667 32.918C778.455 33.13 778.102 33.236 777.607 33.236ZM759.587 76.166C757.608 76.166 756.16 75.7773 755.241 75C754.393 74.2227 753.969 73.0567 753.969 71.502C753.969 70.018 754.428 68.004 755.347 65.46C756.266 62.8453 757.432 60.054 758.845 57.086C760.329 54.118 761.884 51.2913 763.509 48.606C765.134 45.9207 766.689 43.73 768.173 42.034C769.728 40.2673 770.964 39.384 771.883 39.384C773.155 39.384 773.791 39.9493 773.791 41.08C773.791 41.7867 773.19 43.1293 771.989 45.108C770.788 47.0867 769.48 49.136 768.067 51.256C767.502 52.0333 766.724 53.0933 765.735 54.436C764.746 55.7787 763.792 57.0507 762.873 58.252C761.954 59.3827 761.354 60.16 761.071 60.584C760.364 61.644 759.622 63.3753 758.845 65.778C757.997 68.1807 757.573 70.018 757.573 71.29C757.573 71.8553 757.679 72.2793 757.891 72.562C758.174 72.8447 758.774 72.986 759.693 72.986C761.46 72.986 763.438 72.4207 765.629 71.29C767.82 70.1593 770.046 68.746 772.307 67.05C774.568 65.2833 776.688 63.4813 778.667 61.644C780.716 59.8067 782.448 58.2167 783.861 56.874C784.144 56.5913 784.568 56.45 785.133 56.45C786.193 56.45 786.723 56.874 786.723 57.722C786.723 58.4993 786.228 59.3827 785.239 60.372C783.331 62.28 781.564 63.976 779.939 65.46C778.314 66.944 776.759 68.2513 775.275 69.382C772.943 71.078 770.364 72.6327 767.537 74.046C764.71 75.4593 762.06 76.166 759.587 76.166ZM791.296 76.908C788.328 76.908 785.996 75.8833 784.3 73.834C782.604 71.7847 781.756 69.276 781.756 66.308C781.756 61.22 783.452 55.9907 786.844 50.62C787.763 49.136 788.823 47.6873 790.024 46.274C791.225 44.79 792.533 43.3767 793.946 42.034C796.066 39.9847 798.292 38.2887 800.624 36.946C802.956 35.6033 805.217 34.932 807.408 34.932C811.012 34.932 812.814 36.628 812.814 40.02C812.814 44.26 810.341 48.1113 805.394 51.574C800.801 54.6833 796.278 56.238 791.826 56.238C791.049 56.238 790.342 56.2027 789.706 56.132C789.141 55.9907 788.611 55.8493 788.116 55.708C787.409 57.0507 786.773 58.782 786.208 60.902C785.643 63.022 785.36 64.8593 785.36 66.414C785.36 71.078 787.409 73.41 791.508 73.41C794.829 73.41 797.974 72.8447 800.942 71.714C803.91 70.5127 807.443 68.2867 811.542 65.036C814.086 63.0573 815.994 61.4673 817.266 60.266C818.538 59.0647 819.916 57.7927 821.4 56.45C821.824 56.1673 822.213 56.026 822.566 56.026C822.919 56.026 823.273 56.132 823.626 56.344C823.979 56.556 824.156 56.874 824.156 57.298C824.156 58.0753 823.449 59.1707 822.036 60.584C820.835 61.7147 819.563 62.916 818.22 64.188C816.877 65.3893 814.757 67.0853 811.86 69.276C808.751 71.6787 805.359 73.5513 801.684 74.894C798.009 76.2367 794.547 76.908 791.296 76.908ZM791.19 52.846C793.451 52.846 795.607 52.4927 797.656 51.786C799.705 51.0793 801.649 50.0547 803.486 48.712C807.585 45.6733 809.634 42.8113 809.634 40.126C809.634 38.9247 808.892 38.324 807.408 38.324C804.581 38.324 801.295 40.0553 797.55 43.518C795.713 45.214 794.193 46.7687 792.992 48.182C791.861 49.5247 790.801 51.0087 789.812 52.634C790.236 52.7753 790.695 52.846 791.19 52.846ZM820.082 78.498C816.124 78.498 814.146 77.1907 814.146 74.576C814.146 72.9507 814.711 71.3253 815.842 69.7C817.043 68.0747 818.456 66.5907 820.082 65.248C821.707 63.9053 823.226 62.8807 824.64 62.174C825.064 61.962 825.629 61.75 826.336 61.538C827.113 61.326 827.749 61.22 828.244 61.22C828.809 61.22 829.092 61.432 829.092 61.856C829.092 62.2093 828.703 62.598 827.926 63.022C824.675 64.5767 822.131 66.4493 820.294 68.64C818.527 70.76 817.644 72.4913 817.644 73.834C817.644 75.106 818.739 75.742 820.93 75.742C822.767 75.742 824.746 75.2827 826.866 74.364C829.056 73.4453 831.106 72.244 833.014 70.76C834.992 69.276 836.618 67.686 837.89 65.99C839.162 64.294 839.798 62.6687 839.798 61.114C839.798 60.054 839.444 59.1 838.738 58.252C838.102 57.404 837.042 56.768 835.558 56.344L828.562 54.224C826.795 53.6587 825.523 52.9167 824.746 51.998C823.968 51.0793 823.58 50.0547 823.58 48.924C823.58 46.804 824.357 44.896 825.912 43.2C827.537 41.504 829.551 40.1613 831.954 39.172C834.356 38.1827 836.688 37.688 838.95 37.688C841.211 37.688 843.19 38.2533 844.886 39.384C846.582 40.444 847.43 41.8927 847.43 43.73C847.43 44.79 847.112 45.7793 846.476 46.698C845.91 47.6167 845.239 48.076 844.462 48.076C843.26 48.076 842.66 47.5813 842.66 46.592C842.66 46.2387 842.836 45.8147 843.19 45.32C843.614 44.7547 843.826 44.2247 843.826 43.73C843.826 41.61 842.2 40.55 838.95 40.55C837.183 40.55 835.416 40.9387 833.65 41.716C831.954 42.4227 830.54 43.3767 829.41 44.578C828.279 45.7793 827.714 47.0867 827.714 48.5C827.714 49.9133 829.127 51.044 831.954 51.892L838.738 54.012C840.787 54.648 842.2 55.5313 842.978 56.662C843.755 57.722 844.144 58.9233 844.144 60.266C844.144 63.446 842.2 66.732 838.314 70.124C832.024 75.7067 825.947 78.498 820.082 78.498ZM859.15 54.33C858.161 54.33 857.454 54.0827 857.03 53.588C856.677 53.0227 856.5 52.3867 856.5 51.68C856.5 49.772 857.454 48.818 859.362 48.818C861.199 48.818 862.118 49.7013 862.118 51.468C862.118 53.376 861.129 54.33 859.15 54.33ZM852.366 75C851.377 75 850.67 74.7527 850.246 74.258C849.893 73.6927 849.716 73.0567 849.716 72.35C849.716 70.442 850.67 69.488 852.578 69.488C854.415 69.488 855.334 70.3713 855.334 72.138C855.334 74.046 854.345 75 852.366 75ZM2.01497 211.254C0.813635 211.254 0.212968 210.689 0.212968 209.558C0.212968 209.134 0.248302 208.851 0.318969 208.71C2.93364 202.986 10.0356 194.435 21.625 183.058C21.2716 183.129 20.9536 183.199 20.671 183.27C20.3883 183.27 20.1763 183.27 20.035 183.27C18.8336 183.27 18.233 182.599 18.233 181.256C18.233 180.479 18.8336 179.984 20.035 179.772C20.7416 179.631 21.4836 179.525 22.261 179.454C23.109 179.313 24.169 179.101 25.441 178.818C33.9916 169.914 42.2243 162.282 50.139 155.922C58.1243 149.491 65.7563 144.227 73.035 140.128C73.671 139.775 74.2363 139.492 74.731 139.28C75.2256 138.997 75.6496 138.856 76.003 138.856C76.851 138.856 77.275 139.421 77.275 140.552C77.275 142.672 75.155 149.951 70.915 162.388L66.251 176.062C68.0883 176.062 69.007 176.627 69.007 177.758C69.007 179.03 67.8056 179.666 65.403 179.666C64.0603 183.341 62.7883 187.404 61.587 191.856C60.4563 196.237 59.5023 200.76 58.725 205.424C58.4423 206.908 57.8063 207.65 56.817 207.65C55.6156 207.65 55.015 207.014 55.015 205.742C55.015 205.53 55.0856 205.071 55.227 204.364C55.3683 203.657 55.5803 202.739 55.863 201.608C56.711 197.509 57.453 194.117 58.089 191.432C58.7956 188.747 59.3963 186.485 59.891 184.648C60.4563 182.74 60.951 181.009 61.375 179.454C48.3723 179.737 36.9243 180.691 27.031 182.316C24.2043 185.213 21.837 187.687 19.929 189.736C18.021 191.715 16.6076 193.199 15.689 194.188C11.449 198.852 8.05697 203.092 5.51297 206.908C5.30097 207.261 5.05364 207.721 4.77097 208.286C4.41764 208.851 3.99364 209.523 3.49897 210.3C3.2163 210.936 2.72164 211.254 2.01497 211.254ZM31.377 177.97C35.4756 177.405 40.1043 176.981 45.263 176.698C50.4216 176.345 56.2163 176.097 62.647 175.956C63.707 172.705 64.767 169.561 65.827 166.522C66.887 163.413 67.9116 160.445 68.901 157.618C70.1023 154.509 71.6923 149.845 73.671 143.626C65.4736 148.361 57.8416 153.59 50.775 159.314C43.779 165.038 37.313 171.257 31.377 177.97ZM107.82 208.286C106.618 208.286 106.018 207.403 106.018 205.636C106.018 202.951 107.36 198.357 110.046 191.856C112.731 185.284 116.794 176.875 122.236 166.628C125.345 160.833 127.889 156.028 129.868 152.212C131.846 148.396 133.401 145.357 134.532 143.096C135.662 140.764 136.475 139.033 136.97 137.902C137.464 136.701 137.747 135.817 137.818 135.252C137.818 134.969 137.888 134.757 138.03 134.616L133.896 134.404C132.977 134.333 132.27 134.086 131.776 133.662C131.352 133.238 131.14 132.779 131.14 132.284C131.14 131.295 131.705 130.8 132.836 130.8C148.241 130.8 161.597 133.98 172.904 140.34C178.769 143.661 183.61 147.831 187.426 152.848C191.242 157.795 193.15 163.413 193.15 169.702C193.15 174.79 191.736 179.171 188.91 182.846C186.083 186.521 182.232 189.701 177.356 192.386C172.55 195.071 167.109 197.474 161.032 199.594C156.933 201.007 152.375 202.385 147.358 203.728C142.34 205 137.429 206.025 132.624 206.802C127.818 207.579 123.578 207.968 119.904 207.968C117.36 207.968 115.381 207.615 113.968 206.908C112.484 206.131 111.742 205.283 111.742 204.364C111.742 203.587 112.166 203.198 113.014 203.198C113.579 203.198 114.109 203.304 114.604 203.516C115.098 203.728 115.805 203.94 116.724 204.152C117.642 204.364 118.985 204.47 120.752 204.47C123.296 204.47 126.158 204.258 129.338 203.834C132.588 203.339 135.945 202.703 139.408 201.926C142.941 201.149 146.368 200.301 149.69 199.382C153.011 198.393 156.05 197.439 158.806 196.52C164.742 194.471 170.006 192.209 174.6 189.736C179.264 187.263 182.903 184.33 185.518 180.938C188.132 177.546 189.44 173.447 189.44 168.642C189.44 158.537 183.539 150.127 171.738 143.414C163.894 139.033 153.682 136.171 141.104 134.828C141.386 135.181 141.528 135.57 141.528 135.994C141.528 136.63 140.998 138.079 139.938 140.34C138.948 142.601 137.606 145.322 135.91 148.502C134.284 151.682 132.553 155.039 130.716 158.572C128.878 162.105 127.112 165.427 125.416 168.536C114.745 188.959 109.41 201.255 109.41 205.424C109.41 205.707 109.41 205.919 109.41 206.06C109.48 206.201 109.516 206.413 109.516 206.696C109.516 207.049 109.374 207.403 109.092 207.756C108.809 208.109 108.385 208.286 107.82 208.286ZM202.461 206.06C198.362 206.06 196.313 204.117 196.313 200.23C196.313 197.686 196.914 194.965 198.115 192.068C199.387 189.1 201.083 186.238 203.203 183.482C205.323 180.655 207.69 178.111 210.305 175.85C212.92 173.518 215.605 171.681 218.361 170.338C221.117 168.925 223.767 168.218 226.311 168.218C230.834 168.218 233.095 170.444 233.095 174.896C233.095 177.793 232.388 179.242 230.975 179.242C229.703 179.242 229.067 178.641 229.067 177.44C229.067 176.945 229.173 176.451 229.385 175.956C229.668 175.391 229.809 174.79 229.809 174.154C229.809 172.175 228.466 171.186 225.781 171.186C221.47 171.186 216.064 174.472 209.563 181.044C208.008 182.669 206.489 184.577 205.005 186.768C203.521 188.959 202.284 191.185 201.295 193.446C200.376 195.637 199.917 197.721 199.917 199.7C199.917 201.608 200.977 202.562 203.097 202.562C204.934 202.562 206.878 201.997 208.927 200.866C211.047 199.735 212.884 198.569 214.439 197.368C217.548 195.036 220.728 191.856 223.979 187.828C224.474 187.263 225.11 186.521 225.887 185.602C226.664 184.683 227.548 183.659 228.537 182.528C228.89 182.175 229.314 181.998 229.809 181.998C230.94 181.998 231.505 182.563 231.505 183.694L227.477 189.736C224.792 193.693 223.449 196.944 223.449 199.488C223.449 201.325 224.332 202.244 226.099 202.244C227.583 202.244 229.208 201.855 230.975 201.078C232.742 200.301 234.19 199.523 235.321 198.746C237.582 197.262 239.95 195.425 242.423 193.234C244.896 190.973 247.264 188.711 249.525 186.45C249.808 186.167 250.232 186.026 250.797 186.026C251.857 186.026 252.387 186.45 252.387 187.298C252.387 188.075 251.892 188.959 250.903 189.948C248.076 192.775 245.532 195.213 243.271 197.262C241.01 199.241 238.854 200.866 236.805 202.138C235.462 202.915 233.802 203.728 231.823 204.576C229.844 205.424 227.583 205.848 225.039 205.848C221.576 205.848 219.845 204.011 219.845 200.336C219.845 198.923 220.022 197.757 220.375 196.838C213.944 202.986 207.973 206.06 202.461 206.06ZM244.554 240.086C240.243 240.086 238.088 237.542 238.088 232.454C238.088 228.143 239.006 223.974 240.844 219.946C241.126 219.239 241.586 218.886 242.222 218.886C243.494 218.886 244.13 219.451 244.13 220.582C244.13 220.865 244.024 221.218 243.812 221.642C243.67 222.137 243.494 222.667 243.282 223.232C242.787 224.575 242.398 225.988 242.116 227.472C241.833 228.956 241.692 230.511 241.692 232.136C241.692 233.973 241.939 235.21 242.434 235.846C242.928 236.482 243.564 236.8 244.342 236.8C246.179 236.8 248.334 235.952 250.808 234.256C253.352 232.56 255.966 229.875 258.652 226.2C260.56 223.585 262.538 220.476 264.588 216.872C266.637 213.268 268.828 209.134 271.16 204.47C274.269 198.322 277.131 192.068 279.746 185.708C277.979 187.969 276.142 190.16 274.234 192.28C272.326 194.4 270.276 196.379 268.086 198.216C262.22 203.233 257.344 205.742 253.458 205.742C248.794 205.742 246.462 203.057 246.462 197.686C246.462 195.778 246.815 193.481 247.522 190.796C248.299 188.111 249.359 185.037 250.702 181.574C250.914 181.009 251.02 180.549 251.02 180.196C251.02 179.772 251.126 179.348 251.338 178.924C252.468 176.451 254.341 173.695 256.956 170.656C257.521 170.02 258.016 169.702 258.44 169.702C259.5 169.702 260.03 170.479 260.03 172.034C253.175 182.139 249.748 190.69 249.748 197.686C249.748 200.654 250.914 202.138 253.246 202.138C255.86 202.138 259.5 200.336 264.164 196.732C267.485 194.188 270.559 191.326 273.386 188.146C276.212 184.895 278.756 181.539 281.018 178.076C282.572 175.744 283.809 173.695 284.728 171.928C285.717 170.091 286.318 168.854 286.53 168.218C286.883 167.158 287.378 166.628 288.014 166.628C289.356 166.628 290.028 167.193 290.028 168.324C290.028 168.889 289.745 169.914 289.18 171.398C288.685 172.811 288.049 174.507 287.272 176.486C286.141 179.383 284.516 183.27 282.396 188.146C280.276 193.022 277.626 198.817 274.446 205.53C270.488 213.869 266.602 220.688 262.786 225.988C259.959 230.016 256.85 233.373 253.458 236.058C250.136 238.743 247.168 240.086 244.554 240.086ZM343.463 163.236C342.261 163.236 341.661 162.635 341.661 161.434C341.661 161.081 341.908 160.445 342.403 159.526C342.897 158.537 343.463 157.547 344.099 156.558C344.735 155.569 345.229 154.897 345.583 154.544C346.784 153.201 347.703 152.353 348.339 152C349.045 151.647 349.681 151.47 350.247 151.47C351.731 151.47 352.473 152.141 352.473 153.484C352.473 153.979 352.155 154.579 351.519 155.286C350.953 155.922 350.282 156.523 349.505 157.088C348.374 157.795 347.667 158.36 347.385 158.784L345.053 162.07C344.982 162.353 344.805 162.635 344.523 162.918C344.311 163.13 343.957 163.236 343.463 163.236ZM325.443 206.166C323.464 206.166 322.015 205.777 321.097 205C320.249 204.223 319.825 203.057 319.825 201.502C319.825 200.018 320.284 198.004 321.203 195.46C322.121 192.845 323.287 190.054 324.701 187.086C326.185 184.118 327.739 181.291 329.365 178.606C330.99 175.921 332.545 173.73 334.029 172.034C335.583 170.267 336.82 169.384 337.739 169.384C339.011 169.384 339.647 169.949 339.647 171.08C339.647 171.787 339.046 173.129 337.845 175.108C336.643 177.087 335.336 179.136 333.923 181.256C333.357 182.033 332.58 183.093 331.591 184.436C330.601 185.779 329.647 187.051 328.729 188.252C327.81 189.383 327.209 190.16 326.927 190.584C326.22 191.644 325.478 193.375 324.701 195.778C323.853 198.181 323.429 200.018 323.429 201.29C323.429 201.855 323.535 202.279 323.747 202.562C324.029 202.845 324.63 202.986 325.549 202.986C327.315 202.986 329.294 202.421 331.485 201.29C333.675 200.159 335.901 198.746 338.163 197.05C340.424 195.283 342.544 193.481 344.523 191.644C346.572 189.807 348.303 188.217 349.717 186.874C349.999 186.591 350.423 186.45 350.989 186.45C352.049 186.45 352.579 186.874 352.579 187.722C352.579 188.499 352.084 189.383 351.095 190.372C349.187 192.28 347.42 193.976 345.795 195.46C344.169 196.944 342.615 198.251 341.131 199.382C338.799 201.078 336.219 202.633 333.393 204.046C330.566 205.459 327.916 206.166 325.443 206.166ZM342.841 207.65C341.711 207.65 341.145 207.191 341.145 206.272C341.145 205.919 341.287 205.495 341.569 205C341.852 204.435 342.099 203.975 342.311 203.622L351.851 184.436C355.95 176.097 357.999 171.469 357.999 170.55C357.999 169.561 358.494 169.066 359.483 169.066C360.826 169.066 361.497 169.773 361.497 171.186C361.497 171.681 361.179 172.741 360.543 174.366C359.907 175.991 359.095 177.829 358.105 179.878C356.409 183.553 354.996 186.379 353.865 188.358C355.985 185.885 358.141 183.553 360.331 181.362C362.522 179.171 364.748 177.087 367.009 175.108C373.723 169.243 378.881 166.31 382.485 166.31C384.959 166.31 386.195 167.476 386.195 169.808C386.195 171.928 384.393 176.698 380.789 184.118C377.185 191.609 375.383 196.343 375.383 198.322C375.383 199.241 375.701 199.7 376.337 199.7C376.549 199.7 376.867 199.629 377.291 199.488C377.786 199.276 378.281 199.17 378.775 199.17C379.977 199.17 380.577 199.735 380.577 200.866C380.577 202.279 379.058 202.986 376.019 202.986C374.606 202.986 373.581 202.668 372.945 202.032C372.309 201.325 371.991 200.407 371.991 199.276C371.991 195.884 373.723 190.725 377.185 183.8C380.648 176.945 382.379 172.811 382.379 171.398C382.379 170.55 382.061 170.126 381.425 170.126C379.871 170.126 377.362 171.433 373.899 174.048C370.154 176.875 366.409 180.125 362.663 183.8C358.918 187.475 355.349 191.679 351.957 196.414L344.537 206.696C344.113 207.332 343.548 207.65 342.841 207.65ZM418.911 212.314C417.569 212.314 416.897 211.254 416.897 209.134C416.897 206.025 418.629 200.583 422.091 192.81C425.625 185.037 430.854 174.861 437.779 162.282C435.094 162.282 432.55 162.635 430.147 163.342C427.815 163.978 426.579 164.791 426.437 165.78C426.367 166.063 426.19 166.345 425.907 166.628C425.695 166.84 425.342 166.946 424.847 166.946C423.717 166.946 423.151 166.381 423.151 165.25C423.151 163.413 424.6 161.893 427.497 160.692C430.395 159.491 434.458 158.89 439.687 158.89L447.001 146.806C447.496 146.029 448.026 145.181 448.591 144.262C449.157 143.273 449.793 142.213 450.499 141.082C451.206 140.093 452.019 139.598 452.937 139.598C453.503 139.598 453.927 139.775 454.209 140.128C454.492 140.411 454.633 140.729 454.633 141.082C454.633 142.142 453.079 144.969 449.969 149.562C446.083 155.286 443.998 158.395 443.715 158.89C444.775 158.89 446.365 158.996 448.485 159.208C450.605 159.349 453.114 159.597 456.011 159.95C457.071 160.021 457.601 160.551 457.601 161.54C457.601 162.671 456.965 163.236 455.693 163.236C455.199 163.236 454.209 163.165 452.725 163.024C451.241 162.812 449.651 162.635 447.955 162.494C446.259 162.353 444.811 162.317 443.609 162.388L442.019 162.494C427.674 187.722 420.537 203.41 420.607 209.558L420.713 210.406V210.618C420.713 211.749 420.113 212.314 418.911 212.314ZM441.756 206.908C440.625 206.908 440.06 206.343 440.06 205.212C440.06 203.728 440.59 201.396 441.65 198.216C442.71 194.965 444.088 191.255 445.784 187.086C447.551 182.846 449.423 178.5 451.402 174.048C452.533 171.575 453.699 169.172 454.9 166.84C456.101 164.437 457.232 162.353 458.292 160.586C468.751 142.919 475.252 134.086 477.796 134.086C478.785 134.086 479.28 134.581 479.28 135.57C479.28 136.206 478.785 137.407 477.796 139.174C476.877 140.87 475.641 142.884 474.086 145.216C472.602 147.477 470.977 149.774 469.21 152.106C467.514 154.438 465.889 156.593 464.334 158.572C462.85 160.48 461.649 161.929 460.73 162.918C459.953 163.837 459.069 165.179 458.08 166.946C457.161 168.713 456.243 170.55 455.324 172.458C454.405 174.295 453.663 175.921 453.098 177.334L449.07 187.298C450.13 185.885 451.508 184.295 453.204 182.528C457.232 178.076 461.401 174.719 465.712 172.458C470.093 170.126 473.768 168.96 476.736 168.96C478.361 168.96 479.669 169.455 480.658 170.444C481.647 171.433 482.142 172.635 482.142 174.048C482.142 176.804 480.34 181.433 476.736 187.934C473.132 194.365 471.33 198.322 471.33 199.806C471.33 200.583 471.754 200.972 472.602 200.972C474.581 200.972 476.736 200.265 479.068 198.852C481.4 197.368 483.803 195.495 486.276 193.234C488.749 190.973 491.152 188.711 493.484 186.45C493.767 186.167 494.191 186.026 494.756 186.026C495.816 186.026 496.346 186.45 496.346 187.298C496.346 188.075 495.851 188.959 494.862 189.948C490.127 194.683 486.064 198.216 482.672 200.548C479.28 202.88 475.711 204.046 471.966 204.046C469.139 204.046 467.726 202.739 467.726 200.124C467.726 199.135 467.903 198.181 468.256 197.262C468.609 196.343 469.175 195.107 469.952 193.552L474.828 183.906C476.029 181.503 476.913 179.489 477.478 177.864C478.043 176.239 478.326 175.002 478.326 174.154C478.326 172.953 477.584 172.352 476.1 172.352C473.485 172.352 470.411 173.412 466.878 175.532C463.415 177.581 459.705 180.691 455.748 184.86C453.487 187.263 451.437 189.807 449.6 192.492C447.833 195.177 446.42 198.075 445.36 201.184L444.088 204.894C443.593 206.237 442.816 206.908 441.756 206.908ZM500.624 206.908C497.656 206.908 495.324 205.883 493.628 203.834C491.932 201.785 491.084 199.276 491.084 196.308C491.084 191.22 492.78 185.991 496.172 180.62C497.091 179.136 498.151 177.687 499.352 176.274C500.553 174.79 501.861 173.377 503.274 172.034C505.394 169.985 507.62 168.289 509.952 166.946C512.284 165.603 514.545 164.932 516.736 164.932C520.34 164.932 522.142 166.628 522.142 170.02C522.142 174.26 519.669 178.111 514.722 181.574C510.129 184.683 505.606 186.238 501.154 186.238C500.377 186.238 499.67 186.203 499.034 186.132C498.469 185.991 497.939 185.849 497.444 185.708C496.737 187.051 496.101 188.782 495.536 190.902C494.971 193.022 494.688 194.859 494.688 196.414C494.688 201.078 496.737 203.41 500.836 203.41C504.157 203.41 507.302 202.845 510.27 201.714C513.238 200.513 516.771 198.287 520.87 195.036C523.414 193.057 525.322 191.467 526.594 190.266C527.866 189.065 529.244 187.793 530.728 186.45C531.152 186.167 531.541 186.026 531.894 186.026C532.247 186.026 532.601 186.132 532.954 186.344C533.307 186.556 533.484 186.874 533.484 187.298C533.484 188.075 532.777 189.171 531.364 190.584C530.163 191.715 528.891 192.916 527.548 194.188C526.205 195.389 524.085 197.085 521.188 199.276C518.079 201.679 514.687 203.551 511.012 204.894C507.337 206.237 503.875 206.908 500.624 206.908ZM500.518 182.846C502.779 182.846 504.935 182.493 506.984 181.786C509.033 181.079 510.977 180.055 512.814 178.712C516.913 175.673 518.962 172.811 518.962 170.126C518.962 168.925 518.22 168.324 516.736 168.324C513.909 168.324 510.623 170.055 506.878 173.518C505.041 175.214 503.521 176.769 502.32 178.182C501.189 179.525 500.129 181.009 499.14 182.634C499.564 182.775 500.023 182.846 500.518 182.846ZM553.491 209.558C552.996 209.558 552.431 209.311 551.795 208.816C551.159 208.321 550.841 207.791 550.841 207.226C550.841 206.59 551.547 204.965 552.961 202.35C554.374 199.735 556.635 195.813 559.745 190.584C562.854 185.355 566.917 178.571 571.935 170.232L585.821 147.018C586.598 145.605 587.552 143.944 588.683 142.036C589.813 140.128 591.191 137.867 592.817 135.252C593.241 134.616 593.7 134.298 594.195 134.298C594.689 134.298 595.184 134.545 595.679 135.04C596.173 135.464 596.421 135.923 596.421 136.418C596.421 136.701 594.654 139.845 591.121 145.852C587.587 151.788 582.252 160.657 575.115 172.458C572.429 176.91 569.497 181.821 566.317 187.192C563.207 192.563 559.886 198.393 556.353 204.682C576.846 199.17 592.605 196.414 603.629 196.414C606.95 196.414 609.706 196.979 611.897 198.11C614.158 199.17 615.289 200.23 615.289 201.29C615.289 202.491 614.688 203.092 613.487 203.092C612.497 203.092 612.003 202.562 612.003 201.502V201.184C611.296 200.831 610.095 200.548 608.399 200.336C606.703 200.124 604.759 200.018 602.569 200.018C599.883 200.018 596.845 200.265 593.453 200.76C590.061 201.184 586.598 201.749 583.065 202.456C579.602 203.092 576.351 203.763 573.313 204.47C570.345 205.106 567.518 205.777 564.833 206.484C562.218 207.261 559.78 207.933 557.519 208.498C556.176 208.781 555.187 209.028 554.551 209.24C553.985 209.452 553.632 209.558 553.491 209.558ZM645.935 163.236C644.734 163.236 644.133 162.635 644.133 161.434C644.133 161.081 644.38 160.445 644.875 159.526C645.37 158.537 645.935 157.547 646.571 156.558C647.207 155.569 647.702 154.897 648.055 154.544C649.256 153.201 650.175 152.353 650.811 152C651.518 151.647 652.154 151.47 652.719 151.47C654.203 151.47 654.945 152.141 654.945 153.484C654.945 153.979 654.627 154.579 653.991 155.286C653.426 155.922 652.754 156.523 651.977 157.088C650.846 157.795 650.14 158.36 649.857 158.784L647.525 162.07C647.454 162.353 647.278 162.635 646.995 162.918C646.783 163.13 646.43 163.236 645.935 163.236ZM627.915 206.166C625.936 206.166 624.488 205.777 623.569 205C622.721 204.223 622.297 203.057 622.297 201.502C622.297 200.018 622.756 198.004 623.675 195.46C624.594 192.845 625.76 190.054 627.173 187.086C628.657 184.118 630.212 181.291 631.837 178.606C633.462 175.921 635.017 173.73 636.501 172.034C638.056 170.267 639.292 169.384 640.211 169.384C641.483 169.384 642.119 169.949 642.119 171.08C642.119 171.787 641.518 173.129 640.317 175.108C639.116 177.087 637.808 179.136 636.395 181.256C635.83 182.033 635.052 183.093 634.063 184.436C633.074 185.779 632.12 187.051 631.201 188.252C630.282 189.383 629.682 190.16 629.399 190.584C628.692 191.644 627.95 193.375 627.173 195.778C626.325 198.181 625.901 200.018 625.901 201.29C625.901 201.855 626.007 202.279 626.219 202.562C626.502 202.845 627.102 202.986 628.021 202.986C629.788 202.986 631.766 202.421 633.957 201.29C636.148 200.159 638.374 198.746 640.635 197.05C642.896 195.283 645.016 193.481 646.995 191.644C649.044 189.807 650.776 188.217 652.189 186.874C652.472 186.591 652.896 186.45 653.461 186.45C654.521 186.45 655.051 186.874 655.051 187.722C655.051 188.499 654.556 189.383 653.567 190.372C651.659 192.28 649.892 193.976 648.267 195.46C646.642 196.944 645.087 198.251 643.603 199.382C641.271 201.078 638.692 202.633 635.865 204.046C633.038 205.459 630.388 206.166 627.915 206.166ZM642.346 239.98C640.085 239.98 638.495 239.203 637.576 237.648C636.587 236.164 636.092 234.15 636.092 231.606C636.092 225.811 638.813 216.872 644.254 204.788C643.971 204.505 643.83 204.152 643.83 203.728C643.83 203.021 644.466 202.315 645.738 201.608C649.483 194.047 652.946 187.369 656.126 181.574C659.377 175.709 662.309 170.727 664.924 166.628C673.687 153.201 681.566 143.909 688.562 138.75C689.481 138.043 690.364 137.478 691.212 137.054C692.06 136.63 692.908 136.418 693.756 136.418C694.887 136.418 695.452 136.877 695.452 137.796C695.452 138.291 695.24 138.821 694.816 139.386C694.463 139.881 693.827 140.693 692.908 141.824C691.848 143.025 690.611 144.439 689.198 146.064C687.785 147.619 686.301 149.244 684.746 150.94C683.262 152.636 681.884 154.191 680.612 155.604C679.34 156.947 678.315 158.007 677.538 158.784L667.786 168.854L664.394 174.26C663.475 175.673 662.345 177.617 661.002 180.09C659.73 182.493 658.211 185.355 656.444 188.676C655.737 190.019 654.819 191.75 653.688 193.87C652.628 195.99 651.391 198.499 649.978 201.396C650.543 201.467 651.038 201.608 651.462 201.82C651.957 201.961 652.416 202.138 652.84 202.35C662.521 199.382 671.673 194.153 680.294 186.662C680.789 186.309 681.213 186.132 681.566 186.132C682.767 186.132 683.368 186.662 683.368 187.722C683.368 188.005 683.262 188.287 683.05 188.57C682.909 188.853 682.732 189.135 682.52 189.418C681.46 190.549 679.941 191.856 677.962 193.34C675.983 194.824 673.51 196.414 670.542 198.11C667.998 199.523 665.525 200.831 663.122 202.032C660.79 203.163 658.529 204.117 656.338 204.894C658.317 207.297 659.306 210.371 659.306 214.116C659.306 219.275 657.787 224.645 654.748 230.228C651.215 236.729 647.081 239.98 642.346 239.98ZM641.71 236.8C643.759 236.8 645.703 235.952 647.54 234.256C649.448 232.56 651.073 230.369 652.416 227.684C653.405 225.776 654.218 223.479 654.854 220.794C655.561 218.179 655.914 215.883 655.914 213.904C655.914 209.947 654.713 207.297 652.31 205.954C651.391 206.095 650.543 206.201 649.766 206.272C648.989 206.413 648.247 206.449 647.54 206.378V206.484C641.604 219.699 638.636 228.744 638.636 233.62C638.636 234.68 638.919 235.457 639.484 235.952C640.049 236.517 640.791 236.8 641.71 236.8ZM694.819 206.908C691.851 206.908 689.519 205.883 687.823 203.834C686.127 201.785 685.279 199.276 685.279 196.308C685.279 191.22 686.975 185.991 690.367 180.62C691.286 179.136 692.346 177.687 693.547 176.274C694.749 174.79 696.056 173.377 697.469 172.034C699.589 169.985 701.815 168.289 704.147 166.946C706.479 165.603 708.741 164.932 710.931 164.932C714.535 164.932 716.337 166.628 716.337 170.02C716.337 174.26 713.864 178.111 708.917 181.574C704.324 184.683 699.801 186.238 695.349 186.238C694.572 186.238 693.865 186.203 693.229 186.132C692.664 185.991 692.134 185.849 691.639 185.708C690.933 187.051 690.297 188.782 689.731 190.902C689.166 193.022 688.883 194.859 688.883 196.414C688.883 201.078 690.933 203.41 695.031 203.41C698.353 203.41 701.497 202.845 704.465 201.714C707.433 200.513 710.967 198.287 715.065 195.036C717.609 193.057 719.517 191.467 720.789 190.266C722.061 189.065 723.439 187.793 724.923 186.45C725.347 186.167 725.736 186.026 726.089 186.026C726.443 186.026 726.796 186.132 727.149 186.344C727.503 186.556 727.679 186.874 727.679 187.298C727.679 188.075 726.973 189.171 725.559 190.584C724.358 191.715 723.086 192.916 721.743 194.188C720.401 195.389 718.281 197.085 715.383 199.276C712.274 201.679 708.882 203.551 705.207 204.894C701.533 206.237 698.07 206.908 694.819 206.908ZM694.713 182.846C696.975 182.846 699.13 182.493 701.179 181.786C703.229 181.079 705.172 180.055 707.009 178.712C711.108 175.673 713.157 172.811 713.157 170.126C713.157 168.925 712.415 168.324 710.931 168.324C708.105 168.324 704.819 170.055 701.073 173.518C699.236 175.214 697.717 176.769 696.515 178.182C695.385 179.525 694.325 181.009 693.335 182.634C693.759 182.775 694.219 182.846 694.713 182.846ZM760.194 204.47C754.47 204.47 751.608 201.255 751.608 194.824C751.608 191.856 752.315 188.747 753.728 185.496C755.141 182.245 757.014 179.242 759.346 176.486C761.678 173.659 764.257 171.363 767.084 169.596C769.981 167.829 772.914 166.946 775.882 166.946C778.497 166.946 780.405 167.935 781.606 169.914C782.807 171.893 783.408 174.083 783.408 176.486C783.408 179.666 782.772 182.917 781.5 186.238C780.228 189.489 778.497 192.492 776.306 195.248C774.115 198.004 771.642 200.23 768.886 201.926C766.13 203.622 763.233 204.47 760.194 204.47ZM760.088 201.078C760.512 201.078 760.759 201.043 760.83 200.972C763.586 200.619 766.13 199.629 768.462 198.004C770.794 196.379 772.808 194.365 774.504 191.962C776.271 189.489 777.613 186.839 778.532 184.012C779.451 181.185 779.91 178.394 779.91 175.638C779.91 174.013 779.451 172.741 778.532 171.822C777.613 170.903 776.447 170.444 775.034 170.444C772.985 170.444 770.794 171.292 768.462 172.988C766.201 174.684 764.045 176.839 761.996 179.454C760.017 182.069 758.392 184.825 757.12 187.722C755.848 190.549 755.212 193.093 755.212 195.354C755.212 199.17 756.837 201.078 760.088 201.078ZM780.229 239.98C777.968 239.98 776.378 239.203 775.459 237.648C774.47 236.164 773.975 234.15 773.975 231.606C773.975 225.811 776.696 216.872 782.137 204.788C781.854 204.505 781.713 204.152 781.713 203.728C781.713 203.021 782.349 202.315 783.621 201.608C787.366 194.047 790.829 187.369 794.009 181.574C797.26 175.709 800.192 170.727 802.807 166.628C811.57 153.201 819.449 143.909 826.445 138.75C827.364 138.043 828.247 137.478 829.095 137.054C829.943 136.63 830.791 136.418 831.639 136.418C832.77 136.418 833.335 136.877 833.335 137.796C833.335 138.291 833.123 138.821 832.699 139.386C832.346 139.881 831.71 140.693 830.791 141.824C829.731 143.025 828.494 144.439 827.081 146.064C825.668 147.619 824.184 149.244 822.629 150.94C821.145 152.636 819.767 154.191 818.495 155.604C817.223 156.947 816.198 158.007 815.421 158.784L805.669 168.854L802.277 174.26C801.358 175.673 800.228 177.617 798.885 180.09C797.613 182.493 796.094 185.355 794.327 188.676C793.62 190.019 792.702 191.75 791.571 193.87C790.511 195.99 789.274 198.499 787.861 201.396C788.426 201.467 788.921 201.608 789.345 201.82C789.84 201.961 790.299 202.138 790.723 202.35C800.404 199.382 809.556 194.153 818.177 186.662C818.672 186.309 819.096 186.132 819.449 186.132C820.65 186.132 821.251 186.662 821.251 187.722C821.251 188.005 821.145 188.287 820.933 188.57C820.792 188.853 820.615 189.135 820.403 189.418C819.343 190.549 817.824 191.856 815.845 193.34C813.866 194.824 811.393 196.414 808.425 198.11C805.881 199.523 803.408 200.831 801.005 202.032C798.673 203.163 796.412 204.117 794.221 204.894C796.2 207.297 797.189 210.371 797.189 214.116C797.189 219.275 795.67 224.645 792.631 230.228C789.098 236.729 784.964 239.98 780.229 239.98ZM779.593 236.8C781.642 236.8 783.586 235.952 785.423 234.256C787.331 232.56 788.956 230.369 790.299 227.684C791.288 225.776 792.101 223.479 792.737 220.794C793.444 218.179 793.797 215.883 793.797 213.904C793.797 209.947 792.596 207.297 790.193 205.954C789.274 206.095 788.426 206.201 787.649 206.272C786.872 206.413 786.13 206.449 785.423 206.378V206.484C779.487 219.699 776.519 228.744 776.519 233.62C776.519 234.68 776.802 235.457 777.367 235.952C777.932 236.517 778.674 236.8 779.593 236.8ZM856.783 206.06C852.685 206.06 850.635 204.117 850.635 200.23C850.635 197.686 851.236 194.965 852.437 192.068C853.709 189.1 855.405 186.238 857.525 183.482C859.645 180.655 862.013 178.111 864.627 175.85C867.242 173.518 869.927 171.681 872.683 170.338C875.439 168.925 878.089 168.218 880.633 168.218C885.156 168.218 887.417 170.444 887.417 174.896C887.417 177.793 886.711 179.242 885.297 179.242C884.025 179.242 883.389 178.641 883.389 177.44C883.389 176.945 883.495 176.451 883.707 175.956C883.99 175.391 884.131 174.79 884.131 174.154C884.131 172.175 882.789 171.186 880.103 171.186C875.793 171.186 870.387 174.472 863.885 181.044C862.331 182.669 860.811 184.577 859.327 186.768C857.843 188.959 856.607 191.185 855.617 193.446C854.699 195.637 854.239 197.721 854.239 199.7C854.239 201.608 855.299 202.562 857.419 202.562C859.257 202.562 861.2 201.997 863.249 200.866C865.369 199.735 867.207 198.569 868.761 197.368C871.871 195.036 875.051 191.856 878.301 187.828C878.796 187.263 879.432 186.521 880.209 185.602C880.987 184.683 881.87 183.659 882.859 182.528C883.213 182.175 883.637 181.998 884.131 181.998C885.262 181.998 885.827 182.563 885.827 183.694L881.799 189.736C879.114 193.693 877.771 196.944 877.771 199.488C877.771 201.325 878.655 202.244 880.421 202.244C881.905 202.244 883.531 201.855 885.297 201.078C887.064 200.301 888.513 199.523 889.643 198.746C891.905 197.262 894.272 195.425 896.745 193.234C899.219 190.973 901.586 188.711 903.847 186.45C904.13 186.167 904.554 186.026 905.119 186.026C906.179 186.026 906.709 186.45 906.709 187.298C906.709 188.075 906.215 188.959 905.225 189.948C902.399 192.775 899.855 195.213 897.593 197.262C895.332 199.241 893.177 200.866 891.127 202.138C889.785 202.915 888.124 203.728 886.145 204.576C884.167 205.424 881.905 205.848 879.361 205.848C875.899 205.848 874.167 204.011 874.167 200.336C874.167 198.923 874.344 197.757 874.697 196.838C868.267 202.986 862.295 206.06 856.783 206.06ZM347.149 339.77C340.719 339.77 335.101 338.639 330.295 336.378C325.561 334.187 321.886 330.972 319.271 326.732C316.657 322.421 315.349 317.263 315.349 311.256C315.349 305.603 316.409 300.409 318.529 295.674C320.72 290.939 323.865 286.558 327.963 282.53C334.182 276.523 341.425 271.895 349.693 268.644C358.032 265.393 366.618 263.768 375.451 263.768C379.833 263.768 383.684 264.545 387.005 266.1C390.327 267.584 392.941 269.598 394.849 272.142C396.757 274.686 397.711 277.477 397.711 280.516C397.711 282.495 397.252 284.332 396.333 286.028C395.415 287.653 394.39 288.961 393.259 289.95C392.129 290.939 391.21 291.434 390.503 291.434C389.938 291.434 389.373 291.187 388.807 290.692C388.242 290.127 387.959 289.667 387.959 289.314C387.959 288.89 388.454 288.289 389.443 287.512C390.433 286.735 391.387 285.71 392.305 284.438C393.295 283.095 393.789 281.47 393.789 279.562C393.789 277.018 392.906 274.792 391.139 272.884C389.443 270.905 387.041 269.386 383.931 268.326C380.893 267.195 377.395 266.63 373.437 266.63C365.593 266.63 357.961 268.291 350.541 271.612C343.121 274.863 336.62 279.244 331.037 284.756C327.151 288.643 324.218 292.741 322.239 297.052C320.261 301.363 319.271 306.345 319.271 311.998C319.271 317.439 320.543 321.997 323.087 325.672C325.702 329.276 329.2 331.997 333.581 333.834C337.963 335.601 342.874 336.484 348.315 336.484C354.534 336.484 361.141 335.495 368.137 333.516C372.236 332.385 375.699 331.113 378.525 329.7C381.352 328.216 383.472 326.838 384.885 325.566C386.228 324.365 387.217 323.481 387.853 322.916C388.489 322.351 389.019 322.068 389.443 322.068C389.938 322.068 390.185 322.386 390.185 323.022C390.185 323.729 389.761 324.612 388.913 325.672C388.136 326.732 387.253 327.651 386.263 328.428C383.79 330.336 380.645 332.067 376.829 333.622C373.084 335.106 369.339 336.343 365.593 337.332C362.272 338.18 359.092 338.781 356.053 339.134C353.015 339.558 350.047 339.77 347.149 339.77ZM393.046 337.65C391.916 337.65 391.35 337.191 391.35 336.272C391.35 335.848 391.456 335.424 391.668 335C391.951 334.576 392.163 334.223 392.304 333.94L401.95 314.436C406.049 306.097 408.098 301.469 408.098 300.55C408.098 299.561 408.593 299.066 409.582 299.066C410.925 299.066 411.596 299.737 411.596 301.08C411.596 301.787 411.278 302.917 410.642 304.472C410.006 306.027 409.194 307.829 408.204 309.878C406.508 313.553 405.095 316.379 403.964 318.358C406.084 315.885 408.24 313.553 410.43 311.362C412.621 309.171 414.847 307.087 417.108 305.108C423.822 299.243 428.98 296.31 432.584 296.31C435.058 296.31 436.294 297.476 436.294 299.808C436.294 302.069 435.552 303.2 434.068 303.2C433.362 303.2 432.832 302.599 432.478 301.398C432.266 300.55 431.772 300.126 430.994 300.126C429.793 300.126 427.461 301.433 423.998 304.048C420.182 306.875 416.331 310.231 412.444 314.118C408.628 318.005 404.565 322.951 400.254 328.958L394.954 336.378C394.672 336.731 394.389 337.014 394.106 337.226C393.894 337.509 393.541 337.65 393.046 337.65ZM441.413 336.908C438.445 336.908 436.113 335.883 434.417 333.834C432.721 331.785 431.873 329.276 431.873 326.308C431.873 321.22 433.569 315.991 436.961 310.62C437.88 309.136 438.94 307.687 440.141 306.274C441.342 304.79 442.65 303.377 444.063 302.034C446.183 299.985 448.409 298.289 450.741 296.946C453.073 295.603 455.334 294.932 457.525 294.932C461.129 294.932 462.931 296.628 462.931 300.02C462.931 304.26 460.458 308.111 455.511 311.574C450.918 314.683 446.395 316.238 441.943 316.238C441.166 316.238 440.459 316.203 439.823 316.132C439.258 315.991 438.728 315.849 438.233 315.708C437.526 317.051 436.89 318.782 436.325 320.902C435.76 323.022 435.477 324.859 435.477 326.414C435.477 331.078 437.526 333.41 441.625 333.41C444.946 333.41 448.091 332.845 451.059 331.714C454.027 330.513 457.56 328.287 461.659 325.036C464.203 323.057 466.111 321.467 467.383 320.266C468.655 319.065 470.033 317.793 471.517 316.45C471.941 316.167 472.33 316.026 472.683 316.026C473.036 316.026 473.39 316.132 473.743 316.344C474.096 316.556 474.273 316.874 474.273 317.298C474.273 318.075 473.566 319.171 472.153 320.584C470.952 321.715 469.68 322.916 468.337 324.188C466.994 325.389 464.874 327.085 461.977 329.276C458.868 331.679 455.476 333.551 451.801 334.894C448.126 336.237 444.664 336.908 441.413 336.908ZM441.307 312.846C443.568 312.846 445.724 312.493 447.773 311.786C449.822 311.079 451.766 310.055 453.603 308.712C457.702 305.673 459.751 302.811 459.751 300.126C459.751 298.925 459.009 298.324 457.525 298.324C454.698 298.324 451.412 300.055 447.667 303.518C445.83 305.214 444.31 306.769 443.109 308.182C441.978 309.525 440.918 311.009 439.929 312.634C440.353 312.775 440.812 312.846 441.307 312.846ZM472.637 336.06C468.538 336.06 466.489 334.117 466.489 330.23C466.489 327.686 467.089 324.965 468.291 322.068C469.563 319.1 471.259 316.238 473.379 313.482C475.499 310.655 477.866 308.111 480.481 305.85C483.095 303.518 485.781 301.681 488.537 300.338C491.293 298.925 493.943 298.218 496.487 298.218C501.009 298.218 503.271 300.444 503.271 304.896C503.271 307.793 502.564 309.242 501.151 309.242C499.879 309.242 499.243 308.641 499.243 307.44C499.243 306.945 499.349 306.451 499.561 305.956C499.843 305.391 499.985 304.79 499.985 304.154C499.985 302.175 498.642 301.186 495.957 301.186C491.646 301.186 486.24 304.472 479.739 311.044C478.184 312.669 476.665 314.577 475.181 316.768C473.697 318.959 472.46 321.185 471.471 323.446C470.552 325.637 470.093 327.721 470.093 329.7C470.093 331.608 471.153 332.562 473.273 332.562C475.11 332.562 477.053 331.997 479.103 330.866C481.223 329.735 483.06 328.569 484.615 327.368C487.724 325.036 490.904 321.856 494.155 317.828C494.649 317.263 495.285 316.521 496.063 315.602C496.84 314.683 497.723 313.659 498.713 312.528C499.066 312.175 499.49 311.998 499.985 311.998C501.115 311.998 501.681 312.563 501.681 313.694L497.653 319.736C494.967 323.693 493.625 326.944 493.625 329.488C493.625 331.325 494.508 332.244 496.275 332.244C497.759 332.244 499.384 331.855 501.151 331.078C502.917 330.301 504.366 329.523 505.497 328.746C507.758 327.262 510.125 325.425 512.599 323.234C515.072 320.973 517.439 318.711 519.701 316.45C519.983 316.167 520.407 316.026 520.973 316.026C522.033 316.026 522.563 316.45 522.563 317.298C522.563 318.075 522.068 318.959 521.079 319.948C518.252 322.775 515.708 325.213 513.447 327.262C511.185 329.241 509.03 330.866 506.981 332.138C505.638 332.915 503.977 333.728 501.999 334.576C500.02 335.424 497.759 335.848 495.215 335.848C491.752 335.848 490.021 334.011 490.021 330.336C490.021 328.923 490.197 327.757 490.551 326.838C484.12 332.986 478.149 336.06 472.637 336.06ZM516.32 342.314C514.977 342.314 514.306 341.254 514.306 339.134C514.306 336.025 516.037 330.583 519.5 322.81C523.033 315.037 528.262 304.861 535.188 292.282C532.502 292.282 529.958 292.635 527.556 293.342C525.224 293.978 523.987 294.791 523.846 295.78C523.775 296.063 523.598 296.345 523.316 296.628C523.104 296.84 522.75 296.946 522.256 296.946C521.125 296.946 520.56 296.381 520.56 295.25C520.56 293.413 522.008 291.893 524.906 290.692C527.803 289.491 531.866 288.89 537.096 288.89L544.41 276.806C544.904 276.029 545.434 275.181 546 274.262C546.565 273.273 547.201 272.213 547.908 271.082C548.614 270.093 549.427 269.598 550.346 269.598C550.911 269.598 551.335 269.775 551.618 270.128C551.9 270.411 552.042 270.729 552.042 271.082C552.042 272.142 550.487 274.969 547.378 279.562C543.491 285.286 541.406 288.395 541.124 288.89C542.184 288.89 543.774 288.996 545.894 289.208C548.014 289.349 550.522 289.597 553.42 289.95C554.48 290.021 555.01 290.551 555.01 291.54C555.01 292.671 554.374 293.236 553.102 293.236C552.607 293.236 551.618 293.165 550.134 293.024C548.65 292.812 547.06 292.635 545.364 292.494C543.668 292.353 542.219 292.317 541.018 292.388L539.428 292.494C525.082 317.722 517.945 333.41 518.016 339.558L518.122 340.406V340.618C518.122 341.749 517.521 342.314 516.32 342.314ZM563.226 293.236C562.025 293.236 561.424 292.635 561.424 291.434C561.424 291.081 561.672 290.445 562.166 289.526C562.661 288.537 563.226 287.547 563.862 286.558C564.498 285.569 564.993 284.897 565.346 284.544C566.548 283.201 567.466 282.353 568.102 282C568.809 281.647 569.445 281.47 570.01 281.47C571.494 281.47 572.236 282.141 572.236 283.484C572.236 283.979 571.918 284.579 571.282 285.286C570.717 285.922 570.046 286.523 569.268 287.088C568.138 287.795 567.431 288.36 567.148 288.784L564.816 292.07C564.746 292.353 564.569 292.635 564.286 292.918C564.074 293.13 563.721 293.236 563.226 293.236ZM545.206 336.166C543.228 336.166 541.779 335.777 540.86 335C540.012 334.223 539.588 333.057 539.588 331.502C539.588 330.018 540.048 328.004 540.966 325.46C541.885 322.845 543.051 320.054 544.464 317.086C545.948 314.118 547.503 311.291 549.128 308.606C550.754 305.921 552.308 303.73 553.792 302.034C555.347 300.267 556.584 299.384 557.502 299.384C558.774 299.384 559.41 299.949 559.41 301.08C559.41 301.787 558.81 303.129 557.608 305.108C556.407 307.087 555.1 309.136 553.686 311.256C553.121 312.033 552.344 313.093 551.354 314.436C550.365 315.779 549.411 317.051 548.492 318.252C547.574 319.383 546.973 320.16 546.69 320.584C545.984 321.644 545.242 323.375 544.464 325.778C543.616 328.181 543.192 330.018 543.192 331.29C543.192 331.855 543.298 332.279 543.51 332.562C543.793 332.845 544.394 332.986 545.312 332.986C547.079 332.986 549.058 332.421 551.248 331.29C553.439 330.159 555.665 328.746 557.926 327.05C560.188 325.283 562.308 323.481 564.286 321.644C566.336 319.807 568.067 318.217 569.48 316.874C569.763 316.591 570.187 316.45 570.752 316.45C571.812 316.45 572.342 316.874 572.342 317.722C572.342 318.499 571.848 319.383 570.858 320.372C568.95 322.28 567.184 323.976 565.558 325.46C563.933 326.944 562.378 328.251 560.894 329.382C558.562 331.078 555.983 332.633 553.156 334.046C550.33 335.459 547.68 336.166 545.206 336.166ZM572.463 336.06C571.615 336.06 571.191 335.742 571.191 335.106C570.06 333.127 569.495 329.064 569.495 322.916C569.495 321.432 569.601 319.453 569.813 316.98C570.025 314.507 570.308 311.927 570.661 309.242C571.014 306.557 571.403 304.119 571.827 301.928C572.251 299.667 572.71 298.041 573.205 297.052C573.629 296.204 574.159 295.78 574.795 295.78C575.926 295.78 576.491 296.239 576.491 297.158C576.491 297.653 576.42 298.147 576.279 298.642C576.138 299.066 575.996 299.596 575.855 300.232C574.936 303.765 574.194 307.511 573.629 311.468C573.134 315.425 572.887 319.489 572.887 323.658C572.887 325.566 572.958 327.262 573.099 328.746C573.311 330.23 573.523 331.502 573.735 332.562C575.714 331.785 577.904 330.265 580.307 328.004C582.71 325.672 585.042 323.093 587.303 320.266C589.14 317.934 590.801 315.567 592.285 313.164C593.84 310.761 595.041 308.5 595.889 306.38C596.808 304.26 597.267 302.529 597.267 301.186C597.267 300.267 597.161 299.631 596.949 299.278C596.808 298.925 596.631 298.642 596.419 298.43C596.207 298.218 596.101 297.829 596.101 297.264C596.101 296.204 596.631 295.674 597.691 295.674C598.398 295.674 599.034 296.204 599.599 297.264C600.164 298.324 600.447 299.667 600.447 301.292C600.447 306.309 596.949 313.341 589.953 322.386C582.745 331.502 576.915 336.06 572.463 336.06ZM611.179 336.908C608.211 336.908 605.879 335.883 604.183 333.834C602.487 331.785 601.639 329.276 601.639 326.308C601.639 321.22 603.335 315.991 606.727 310.62C607.645 309.136 608.705 307.687 609.907 306.274C611.108 304.79 612.415 303.377 613.829 302.034C615.949 299.985 618.175 298.289 620.507 296.946C622.839 295.603 625.1 294.932 627.291 294.932C630.895 294.932 632.697 296.628 632.697 300.02C632.697 304.26 630.223 308.111 625.277 311.574C620.683 314.683 616.161 316.238 611.709 316.238C610.931 316.238 610.225 316.203 609.589 316.132C609.023 315.991 608.493 315.849 607.999 315.708C607.292 317.051 606.656 318.782 606.091 320.902C605.525 323.022 605.243 324.859 605.243 326.414C605.243 331.078 607.292 333.41 611.391 333.41C614.712 333.41 617.857 332.845 620.825 331.714C623.793 330.513 627.326 328.287 631.425 325.036C633.969 323.057 635.877 321.467 637.149 320.266C638.421 319.065 639.799 317.793 641.283 316.45C641.707 316.167 642.095 316.026 642.449 316.026C642.802 316.026 643.155 316.132 643.509 316.344C643.862 316.556 644.039 316.874 644.039 317.298C644.039 318.075 643.332 319.171 641.919 320.584C640.717 321.715 639.445 322.916 638.103 324.188C636.76 325.389 634.64 327.085 631.743 329.276C628.633 331.679 625.241 333.551 621.567 334.894C617.892 336.237 614.429 336.908 611.179 336.908ZM611.073 312.846C613.334 312.846 615.489 312.493 617.539 311.786C619.588 311.079 621.531 310.055 623.369 308.712C627.467 305.673 629.517 302.811 629.517 300.126C629.517 298.925 628.775 298.324 627.291 298.324C624.464 298.324 621.178 300.055 617.433 303.518C615.595 305.214 614.076 306.769 612.875 308.182C611.744 309.525 610.684 311.009 609.695 312.634C610.119 312.775 610.578 312.846 611.073 312.846ZM664.999 340.618C663.586 340.618 662.879 339.947 662.879 338.604C662.879 338.251 663.021 337.721 663.303 337.014C663.657 336.378 664.151 335.459 664.787 334.258L670.829 323.022C674.08 317.157 676.907 311.786 679.309 306.91C681.783 301.963 683.903 297.547 685.669 293.66C690.969 281.576 693.619 272.425 693.619 266.206C693.619 265.782 693.902 265.287 694.467 264.722C695.103 264.157 695.704 263.874 696.269 263.874C697.117 263.874 697.541 264.687 697.541 266.312C697.541 270.905 695.881 277.866 692.559 287.194C691.217 290.727 689.839 294.155 688.425 297.476C687.012 300.797 685.528 304.013 683.973 307.122C687.012 303.447 690.157 299.879 693.407 296.416C696.658 292.953 700.05 289.597 703.583 286.346C714.042 276.523 721.674 271.612 726.479 271.612C729.518 271.612 731.037 273.591 731.037 277.548C731.037 281.788 728.953 289.42 724.783 300.444C719.413 314.295 716.445 322.245 715.879 324.294C731.921 304.861 748.245 290.692 764.851 281.788C767.113 280.587 769.48 279.421 771.953 278.29C774.497 277.089 776.441 276.488 777.783 276.488C779.762 276.488 780.751 277.689 780.751 280.092C780.751 281.293 780.539 282.742 780.115 284.438C779.691 286.134 778.985 288.007 777.995 290.056L768.243 310.726C767.325 312.705 766.3 314.895 765.169 317.298C764.109 319.701 763.085 322.103 762.095 324.506C761.177 326.838 760.399 328.958 759.763 330.866C759.127 332.703 758.809 334.117 758.809 335.106C758.809 336.237 759.269 336.802 760.187 336.802C761.601 336.802 763.367 335.954 765.487 334.258C767.678 332.562 770.01 330.407 772.483 327.792C772.837 327.368 773.296 326.873 773.861 326.308C774.497 325.743 775.063 325.46 775.557 325.46C776.688 325.46 777.253 326.096 777.253 327.368C777.253 327.58 777.183 327.827 777.041 328.11C776.9 328.322 776.582 328.675 776.087 329.17C775.169 330.089 774.25 331.007 773.331 331.926C772.413 332.845 771.565 333.657 770.787 334.364C768.95 335.919 767.007 337.297 764.957 338.498C762.979 339.77 761.071 340.406 759.233 340.406C756.336 340.406 754.887 338.781 754.887 335.53C754.887 333.551 755.594 330.477 757.007 326.308C758.421 322.139 760.576 316.874 763.473 310.514L774.603 286.346C775.381 284.721 775.875 283.59 776.087 282.954C776.299 282.247 776.405 281.753 776.405 281.47C776.405 281.046 776.229 280.834 775.875 280.834C775.734 280.834 775.345 280.94 774.709 281.152C774.144 281.293 773.119 281.717 771.635 282.424C767.325 284.403 762.59 287.053 757.431 290.374C752.273 293.695 747.467 297.299 743.015 301.186C739.411 304.295 736.196 307.263 733.369 310.09C730.543 312.917 727.787 315.849 725.101 318.888C722.416 321.927 719.448 325.389 716.197 329.276C715.279 330.336 714.643 331.078 714.289 331.502C713.936 331.855 713.371 332.032 712.593 332.032C711.392 332.032 710.791 331.396 710.791 330.124C710.791 328.781 711.074 327.015 711.639 324.824C712.205 322.633 712.911 320.407 713.759 318.146L721.603 297.158C723.511 291.999 724.925 287.724 725.843 284.332C726.762 280.94 727.221 278.396 727.221 276.7C727.221 275.287 726.621 274.58 725.419 274.58C723.087 274.58 717.823 278.325 709.625 285.816C706.799 288.431 704.149 290.939 701.675 293.342C699.202 295.745 696.941 298.077 694.891 300.338C692.135 303.306 689.627 306.133 687.365 308.818C685.104 311.503 682.913 314.295 680.793 317.192C678.744 320.019 676.624 323.163 674.433 326.626C672.243 330.089 669.875 334.117 667.331 338.71C666.625 339.982 665.847 340.618 664.999 340.618ZM810.836 293.236C809.634 293.236 809.034 292.635 809.034 291.434C809.034 291.081 809.281 290.445 809.776 289.526C810.27 288.537 810.836 287.547 811.472 286.558C812.108 285.569 812.602 284.897 812.956 284.544C814.157 283.201 815.076 282.353 815.712 282C816.418 281.647 817.054 281.47 817.62 281.47C819.104 281.47 819.846 282.141 819.846 283.484C819.846 283.979 819.528 284.579 818.892 285.286C818.326 285.922 817.655 286.523 816.878 287.088C815.747 287.795 815.04 288.36 814.758 288.784L812.426 292.07C812.355 292.353 812.178 292.635 811.896 292.918C811.684 293.13 811.33 293.236 810.836 293.236ZM792.816 336.166C790.837 336.166 789.388 335.777 788.47 335C787.622 334.223 787.198 333.057 787.198 331.502C787.198 330.018 787.657 328.004 788.576 325.46C789.494 322.845 790.66 320.054 792.074 317.086C793.558 314.118 795.112 311.291 796.738 308.606C798.363 305.921 799.918 303.73 801.402 302.034C802.956 300.267 804.193 299.384 805.112 299.384C806.384 299.384 807.02 299.949 807.02 301.08C807.02 301.787 806.419 303.129 805.218 305.108C804.016 307.087 802.709 309.136 801.296 311.256C800.73 312.033 799.953 313.093 798.964 314.436C797.974 315.779 797.02 317.051 796.102 318.252C795.183 319.383 794.582 320.16 794.3 320.584C793.593 321.644 792.851 323.375 792.074 325.778C791.226 328.181 790.802 330.018 790.802 331.29C790.802 331.855 790.908 332.279 791.12 332.562C791.402 332.845 792.003 332.986 792.922 332.986C794.688 332.986 796.667 332.421 798.858 331.29C801.048 330.159 803.274 328.746 805.536 327.05C807.797 325.283 809.917 323.481 811.896 321.644C813.945 319.807 815.676 318.217 817.09 316.874C817.372 316.591 817.796 316.45 818.362 316.45C819.422 316.45 819.952 316.874 819.952 317.722C819.952 318.499 819.457 319.383 818.468 320.372C816.56 322.28 814.793 323.976 813.168 325.46C811.542 326.944 809.988 328.251 808.504 329.382C806.172 331.078 803.592 332.633 800.766 334.046C797.939 335.459 795.289 336.166 792.816 336.166ZM810.214 337.65C809.084 337.65 808.518 337.191 808.518 336.272C808.518 335.919 808.66 335.495 808.942 335C809.225 334.435 809.472 333.975 809.684 333.622L819.224 314.436C823.323 306.097 825.372 301.469 825.372 300.55C825.372 299.561 825.867 299.066 826.856 299.066C828.199 299.066 828.87 299.773 828.87 301.186C828.87 301.681 828.552 302.741 827.916 304.366C827.28 305.991 826.468 307.829 825.478 309.878C823.782 313.553 822.369 316.379 821.238 318.358C823.358 315.885 825.514 313.553 827.704 311.362C829.895 309.171 832.121 307.087 834.382 305.108C841.096 299.243 846.254 296.31 849.858 296.31C852.332 296.31 853.568 297.476 853.568 299.808C853.568 301.928 851.766 306.698 848.162 314.118C844.558 321.609 842.756 326.343 842.756 328.322C842.756 329.241 843.074 329.7 843.71 329.7C843.922 329.7 844.24 329.629 844.664 329.488C845.159 329.276 845.654 329.17 846.148 329.17C847.35 329.17 847.95 329.735 847.95 330.866C847.95 332.279 846.431 332.986 843.392 332.986C841.979 332.986 840.954 332.668 840.318 332.032C839.682 331.325 839.364 330.407 839.364 329.276C839.364 325.884 841.096 320.725 844.558 313.8C848.021 306.945 849.752 302.811 849.752 301.398C849.752 300.55 849.434 300.126 848.798 300.126C847.244 300.126 844.735 301.433 841.272 304.048C837.527 306.875 833.782 310.125 830.036 313.8C826.291 317.475 822.722 321.679 819.33 326.414L811.91 336.696C811.486 337.332 810.921 337.65 810.214 337.65ZM890.293 344.434C889.728 344.434 889.021 344.151 888.173 343.586C887.396 343.091 886.795 342.597 886.371 342.102C885.523 341.042 884.958 339.77 884.675 338.286C884.393 336.802 884.251 335.177 884.251 333.41C884.251 331.926 884.287 330.336 884.357 328.64C884.499 326.873 884.711 325.001 884.993 323.022C883.156 325.142 881.071 327.227 878.739 329.276C876.478 331.255 874.146 332.88 871.743 334.152C869.411 335.424 867.185 336.06 865.065 336.06C859.765 336.06 857.115 333.233 857.115 327.58C857.115 321.715 859.165 316.061 863.263 310.62C865.313 307.935 867.645 305.355 870.259 302.882C872.874 300.409 875.63 298.395 878.527 296.84C881.425 295.285 884.287 294.508 887.113 294.508C889.233 294.508 891.106 295.321 892.731 296.946C892.873 296.663 893.049 296.204 893.261 295.568C893.544 294.932 893.933 294.119 894.427 293.13C896.123 289.455 897.996 285.639 900.045 281.682C902.095 277.654 903.932 274.333 905.557 271.718C907.395 268.821 909.126 267.372 910.751 267.372C911.882 267.372 912.447 268.255 912.447 270.022C912.447 273.061 909.585 280.163 903.861 291.328C903.508 291.964 902.872 293.13 901.953 294.826C901.105 296.451 900.081 298.359 898.879 300.55C897.749 302.67 896.583 304.79 895.381 306.91C894.18 309.03 893.085 310.938 892.095 312.634C891.177 314.259 890.505 315.39 890.081 316.026C889.304 319.206 888.703 322.245 888.279 325.142C887.855 327.969 887.643 330.901 887.643 333.94C887.643 335.071 887.679 336.095 887.749 337.014C887.891 338.003 888.173 338.781 888.597 339.346C888.951 339.77 889.339 340.088 889.763 340.3C890.187 340.583 890.682 340.83 891.247 341.042C892.095 341.254 892.519 341.749 892.519 342.526C892.519 343.798 891.777 344.434 890.293 344.434ZM895.275 300.126C897.961 295.533 900.328 291.257 902.377 287.3C904.427 283.272 906.087 279.491 907.359 275.958C904.533 279.633 902.165 283.519 900.257 287.618C898.349 291.717 896.689 295.886 895.275 300.126ZM864.323 332.88C866.373 332.88 868.528 332.209 870.789 330.866C873.121 329.453 875.312 327.792 877.361 325.884C879.199 324.188 880.895 322.457 882.449 320.69C884.004 318.853 885.453 316.98 886.795 315.072C887.361 312.599 887.997 310.161 888.703 307.758C889.481 305.355 890.329 302.953 891.247 300.55C890.117 298.783 888.527 297.9 886.477 297.9C884.357 297.9 881.99 298.713 879.375 300.338C876.831 301.893 874.358 303.836 871.955 306.168C869.623 308.5 867.609 310.726 865.913 312.846C862.38 317.581 860.613 322.598 860.613 327.898C860.613 331.219 861.85 332.88 864.323 332.88Z" fill="white"/>
</svg>
